{
  "accessors": [
    {
      "bufferView": 0,
      "componentType": 5126,
      "count": 6928,
      "max": [
        33.9906120300293,
        5.982685565948486,
        40.000003814697266
      ],
      "min": [
        -93.99061584472656,
        -3.416203737258911,
        -40.0
      ],
      "type": "VEC3"
    },
    {
      "bufferView": 1,
      "componentType": 5126,
      "count": 6928,
      "max": [
        1.0,
        1.0,
        1.0
      ],
      "min": [
        -1.0,
        -1.0,
        -1.0
      ],
      "type": "VEC3"
    },
    {
      "bufferView": 2,
      "componentType": 5126,
      "count": 6928,
      "max": [
        1.0,
        1.0,
        1.0,
        1.0
      ],
      "min": [
        -1.0,
        -0.9933957457542419,
        -1.0,
        1.0
      ],
      "type": "VEC4"
    },
    {
      "bufferView": 3,
      "componentType": 5126,
      "count": 6928,
      "max": [
        244.9716796875,
        41.0
      ],
      "min": [
        -217.98092651367188,
        -74.00296020507813
      ],
      "type": "VEC2"
    },
    {
      "bufferView": 4,
      "componentType": 5126,
      "count": 6928,
      "max": [
        0.0,
        1.0
      ],
      "min": [
        0.0,
        1.0
      ],
      "type": "VEC2"
    },
    {
      "bufferView": 5,
      "componentType": 5125,
      "count": 15792,
      "max": [
        6927
      ],
      "min": [
        0
      ],
      "type": "SCALAR"
    }
  ],
  "asset": {
    "version": "2.0"
  },
  "bufferViews": [
    {
      "buffer": 0,
      "byteLength": 83136,
      "target": 34962
    },
    {
      "buffer": 0,
      "byteLength": 83136,
      "byteOffset": 83136,
      "target": 34962
    },
    {
      "buffer": 0,
      "byteLength": 110848,
      "byteOffset": 166272,
      "target": 34962
    },
    {
      "buffer": 0,
      "byteLength": 55424,
      "byteOffset": 277120,
      "target": 34962
    },
    {
      "buffer": 0,
      "byteLength": 55424,
      "byteOffset": 332544,
      "target": 34962
    },
    {
      "buffer": 0,
      "byteLength": 63168,
      "byteOffset": 387968,
      "target": 34963
    }
  ],
  "buffers": [
    {
      "byteLength": 451136,
      "uri": "ExampleStage.bin"
    }
  ],
  "images": [
    {
      "uri": "ProBuilderDefault_Base.png"
    }
  ],
  "materials": [
    {
      "name": "ProBuilderDefault",
      "pbrMetallicRoughness": {
        "baseColorTexture": {
          "index": 0
        },
        "metallicFactor": 0.20000000298023224,
        "roughnessFactor": 0.800000011920929
      }
    }
  ],
  "meshes": [
    {
      "primitives": [
        {
          "attributes": {
            "NORMAL": 1,
            "POSITION": 0,
            "TANGENT": 2,
            "TEXCOORD_0": 3,
            "TEXCOORD_1": 4
          },
          "indices": 5,
          "material": 0,
          "mode": 4
        }
      ]
    }
  ],
  "nodes": [
    {
      "children": [
        1
      ],
      "name": "RootNode",
      "rotation": [
        0.0,
        0.0,
        0.0,
        1.0
      ],
      "scale": [
        1.0,
        1.0,
        1.0
      ],
      "translation": [
        0.0,
        0.0,
        0.0
      ]
    },
    {
      "mesh": 0,
      "name": "ExampleStage",
      "rotation": [
        0.0,
        0.0,
        0.0,
        1.0
      ],
      "scale": [
        1.0,
        1.0,
        1.0
      ],
      "translation": [
        0.0,
        0.0,
        0.0
      ]
    }
  ],
  "samplers": [
    {
      "wrapS": 10497,
      "wrapT": 10497
    }
  ],
  "scenes": [
    {
      "nodes": [
        0
      ]
    }
  ],
  "textures": [
    {
      "sampler": 0,
      "source": 0
    }
  ]
}
