{
	"asset":
	{
		"version": "2.0",
		"generator": "Unreal Engine 5.6.1"
	},
	"scene": 0,
	"accessors": [
		{
			"bufferView": 0,
			"count": 9132,
			"type": "SCALAR",
			"componentType": 5123
		},
		{
			"bufferView": 1,
			"count": 2363,
			"type": "VEC3",
			"componentType": 5126,
			"min": [ -0.105819613, -0.0491791517, -0.282593995 ],
			"max": [ 0.101996101, 0.0384973884, 1.68195283 ]
		},
		{
			"bufferView": 2,
			"count": 2363,
			"type": "VEC3",
			"componentType": 5126
		},
		{
			"bufferView": 3,
			"count": 2363,
			"type": "VEC4",
			"componentType": 5126
		},
		{
			"bufferView": 4,
			"count": 2363,
			"type": "VEC2",
			"componentType": 5126
		},
		{
			"bufferView": 5,
			"count": 2363,
			"type": "VEC2",
			"componentType": 5126
		}
	],
	"buffers": [
		{
			"uri": "Sword.bin",
			"byteLength": 150592
		}
	],
	"bufferViews": [
		{
			"buffer": 0,
			"byteLength": 18264,
			"target": 34963
		},
		{
			"buffer": 0,
			"byteLength": 28356,
			"byteOffset": 18264,
			"target": 34962
		},
		{
			"buffer": 0,
			"byteLength": 28356,
			"byteOffset": 46620,
			"target": 34962
		},
		{
			"buffer": 0,
			"byteLength": 37808,
			"byteOffset": 74976,
			"target": 34962
		},
		{
			"buffer": 0,
			"byteLength": 18904,
			"byteOffset": 112784,
			"target": 34962
		},
		{
			"buffer": 0,
			"byteLength": 18904,
			"byteOffset": 131688,
			"target": 34962
		}
	],
	"images": [
		{
			"uri": "WorldGridMaterial_BaseColor.png"
		},
		{
			"uri": "WorldGridMaterial_MetallicRoughness.png"
		},
		{
			"uri": "WorldGridMaterial_Normal.png"
		}
	],
	"materials": [
		{
			"name": "WorldGridMaterial",
			"pbrMetallicRoughness":
			{
				"baseColorTexture":
				{
					"index": 0
				},
				"metallicRoughnessTexture":
				{
					"index": 1
				}
			},
			"normalTexture":
			{
				"index": 2
			}
		}
	],
	"meshes": [
		{
			"name": "Sword",
			"primitives": [
				{
					"attributes":
					{
						"POSITION": 1,
						"NORMAL": 2,
						"TANGENT": 3,
						"TEXCOORD_0": 4,
						"TEXCOORD_1": 5
					},
					"indices": 0,
					"material": 0
				}
			]
		}
	],
	"nodes": [
		{
			"mesh": 0
		}
	],
	"samplers": [
		{
			"minFilter": 9987,
			"magFilter": 9729
		}
	],
	"scenes": [
		{
			"nodes": [ 0 ]
		}
	],
	"textures": [
		{
			"name": "WorldGridMaterial_BaseColor",
			"sampler": 0,
			"source": 0
		},
		{
			"name": "WorldGridMaterial_MetallicRoughness",
			"sampler": 0,
			"source": 1
		},
		{
			"name": "WorldGridMaterial_Normal",
			"sampler": 0,
			"source": 2
		}
	]
}