{
  "accessors": [
    {
      "bufferView": 0,
      "componentType": 5126,
      "count": 504,
      "max": [
        263.59405517578125,
        0.7652576565742493,
        196.09356689453125
      ],
      "min": [
        -263.6505432128906,
        -67.60975646972656,
        -253.31021118164063
      ],
      "type": "VEC3"
    },
    {
      "bufferView": 1,
      "componentType": 5126,
      "count": 504,
      "max": [
        1.0,
        1.0,
        1.0
      ],
      "min": [
        -1.0,
        -1.0,
        -1.0
      ],
      "type": "VEC3"
    },
    {
      "bufferView": 2,
      "componentType": 5126,
      "count": 504,
      "max": [
        1.0,
        1.0,
        0.9999690055847168,
        -1.0
      ],
      "min": [
        -0.9999690055847168,
        -0.03950132057070732,
        -1.0,
        -1.0
      ],
      "type": "VEC4"
    },
    {
      "bufferView": 3,
      "componentType": 5126,
      "count": 504,
      "max": [
        1.0009765625,
        0.99609375
      ],
      "min": [
        -0.0006852149963378906,
        -3.844499588012695e-05
      ],
      "type": "VEC2"
    },
    {
      "bufferView": 4,
      "componentType": 5125,
      "count": 1392,
      "max": [
        503
      ],
      "min": [
        0
      ],
      "type": "SCALAR"
    },
    {
      "bufferView": 5,
      "componentType": 5126,
      "count": 369,
      "max": [
        22.169925689697266,
        160.36488342285156,
        165.6173553466797
      ],
      "min": [
        -25.88774299621582,
        92.46372985839844,
        158.68214416503906
      ],
      "type": "VEC3"
    },
    {
      "bufferView": 6,
      "componentType": 5126,
      "count": 369,
      "max": [
        1.0,
        1.0,
        1.0
      ],
      "min": [
        -1.0,
        -1.0,
        -1.0
      ],
      "type": "VEC3"
    },
    {
      "bufferView": 7,
      "componentType": 5126,
      "count": 369,
      "max": [
        0.1809621900320053,
        1.0,
        1.0,
        1.0
      ],
      "min": [
        -1.0,
        -1.0,
        -1.0,
        -1.0
      ],
      "type": "VEC4"
    },
    {
      "bufferView": 8,
      "componentType": 5126,
      "count": 369,
      "max": [
        0.9931640625,
        1.0
      ],
      "min": [
        0.001743316650390625,
        0.0011997222900390625
      ],
      "type": "VEC2"
    },
    {
      "bufferView": 9,
      "componentType": 5125,
      "count": 882,
      "max": [
        368
      ],
      "min": [
        0
      ],
      "type": "SCALAR"
    },
    {
      "bufferView": 10,
      "componentType": 5126,
      "count": 330,
      "max": [
        177.76754760742188,
        95.26758575439453,
        6.983898639678955
      ],
      "min": [
        -178.41030883789063,
        0.02827891707420349,
        -6.780659198760986
      ],
      "type": "VEC3"
    },
    {
      "bufferView": 11,
      "componentType": 5126,
      "count": 330,
      "max": [
        0.9984844326972961,
        1.0,
        1.0
      ],
      "min": [
        -0.9974676370620728,
        -0.9999690055847168,
        -0.9938837289810181
      ],
      "type": "VEC3"
    },
    {
      "bufferView": 12,
      "componentType": 5126,
      "count": 330,
      "max": [
        1.0,
        1.0,
        0.9954333305358887,
        -1.0
      ],
      "min": [
        -1.0,
        -0.7226195931434631,
        -0.9972524046897888,
        -1.0
      ],
      "type": "VEC4"
    },
    {
      "bufferView": 13,
      "componentType": 5126,
      "count": 330,
      "max": [
        0.9912109375,
        1.0126953125
      ],
      "min": [
        0.00396728515625,
        -0.0051116943359375
      ],
      "type": "VEC2"
    },
    {
      "bufferView": 14,
      "componentType": 5125,
      "count": 786,
      "max": [
        329
      ],
      "min": [
        0
      ],
      "type": "SCALAR"
    },
    {
      "bufferView": 15,
      "componentType": 5126,
      "count": 349,
      "max": [
        -160.0185089111328,
        125.26239776611328,
        39.58984375
      ],
      "min": [
        -177.8009490966797,
        104.00604248046875,
        12.117082595825195
      ],
      "type": "VEC3"
    },
    {
      "bufferView": 16,
      "componentType": 5126,
      "count": 349,
      "max": [
        0.9984536170959473,
        1.0,
        0.9977446794509888
      ],
      "min": [
        -0.9905305504798889,
        -1.0,
        -0.9996901750564575
      ],
      "type": "VEC3"
    },
    {
      "bufferView": 17,
      "componentType": 5126,
      "count": 349,
      "max": [
        0.9996901750564575,
        1.0,
        0.9874406456947327,
        1.0
      ],
      "min": [
        -1.0,
        -0.8322498202323914,
        -0.9888209700584412,
        -1.0
      ],
      "type": "VEC4"
    },
    {
      "bufferView": 18,
      "componentType": 5126,
      "count": 349,
      "max": [
        0.99658203125,
        0.9970703125
      ],
      "min": [
        0.00312042236328125,
        0.0036411285400390625
      ],
      "type": "VEC2"
    },
    {
      "bufferView": 19,
      "componentType": 5125,
      "count": 900,
      "max": [
        348
      ],
      "min": [
        0
      ],
      "type": "SCALAR"
    },
    {
      "bufferView": 20,
      "componentType": 5126,
      "count": 1703,
      "max": [
        172.59774780273438,
        127.11164093017578,
        180.99337768554688
      ],
      "min": [
        -155.40216064453125,
        104.01654052734375,
        35.99641418457031
      ],
      "type": "VEC3"
    },
    {
      "bufferView": 21,
      "componentType": 5126,
      "count": 1703,
      "max": [
        0.9999690055847168,
        1.0,
        0.999225914478302
      ],
      "min": [
        -0.9999690055847168,
        -1.0,
        -0.9954954981803894
      ],
      "type": "VEC3"
    },
    {
      "bufferView": 22,
      "componentType": 5126,
      "count": 1703,
      "max": [
        0.9938837289810181,
        1.0,
        0.9999690055847168,
        1.0
      ],
      "min": [
        -1.0,
        -0.9979910850524902,
        -0.9962700009346008,
        -1.0
      ],
      "type": "VEC4"
    },
    {
      "bufferView": 23,
      "componentType": 5126,
      "count": 1703,
      "max": [
        0.994140625,
        0.99853515625
      ],
      "min": [
        -0.0013952255249023438,
        -4.887580871582031e-06
      ],
      "type": "VEC2"
    },
    {
      "bufferView": 24,
      "componentType": 5125,
      "count": 3324,
      "max": [
        1702
      ],
      "min": [
        0
      ],
      "type": "SCALAR"
    },
    {
      "bufferView": 25,
      "componentType": 5126,
      "count": 811,
      "max": [
        22.872318267822266,
        105.67459869384766,
        165.34710693359375
      ],
      "min": [
        -26.472309112548828,
        0.418333500623703,
        156.8784942626953
      ],
      "type": "VEC3"
    },
    {
      "bufferView": 26,
      "componentType": 5126,
      "count": 811,
      "max": [
        1.0,
        1.0,
        1.0
      ],
      "min": [
        -1.0,
        -1.0,
        -1.0
      ],
      "type": "VEC3"
    },
    {
      "bufferView": 27,
      "componentType": 5126,
      "count": 811,
      "max": [
        1.0,
        1.0,
        1.0,
        1.0
      ],
      "min": [
        -1.0,
        -1.0,
        -1.0,
        -1.0
      ],
      "type": "VEC4"
    },
    {
      "bufferView": 28,
      "componentType": 5126,
      "count": 811,
      "max": [
        0.92822265625,
        0.99755859375
      ],
      "min": [
        0.001720428466796875,
        0.0020084381103515625
      ],
      "type": "VEC2"
    },
    {
      "bufferView": 29,
      "componentType": 5125,
      "count": 1338,
      "max": [
        810
      ],
      "min": [
        0
      ],
      "type": "SCALAR"
    },
    {
      "bufferView": 30,
      "componentType": 5126,
      "count": 2994,
      "max": [
        174.87496948242188,
        104.34521484375,
        179.11485290527344
      ],
      "min": [
        -176.05657958984375,
        -0.15952034294605255,
        17.696491241455078
      ],
      "type": "VEC3"
    },
    {
      "bufferView": 31,
      "componentType": 5126,
      "count": 2994,
      "max": [
        1.0,
        1.0,
        1.0
      ],
      "min": [
        -1.0,
        -1.0,
        -0.9999690055847168
      ],
      "type": "VEC3"
    },
    {
      "bufferView": 32,
      "componentType": 5126,
      "count": 2994,
      "max": [
        1.0,
        1.0,
        1.0,
        -1.0
      ],
      "min": [
        -1.0,
        -0.38610216975212097,
        -0.9998760223388672,
        -1.0
      ],
      "type": "VEC4"
    },
    {
      "bufferView": 33,
      "componentType": 5126,
      "count": 2994,
      "max": [
        0.99169921875,
        1.0244140625
      ],
      "min": [
        -1.2099742889404297e-05,
        -0.035308837890625
      ],
      "type": "VEC2"
    },
    {
      "bufferView": 34,
      "componentType": 5125,
      "count": 6312,
      "max": [
        2993
      ],
      "min": [
        0
      ],
      "type": "SCALAR"
    },
    {
      "bufferView": 35,
      "componentType": 5126,
      "count": 312,
      "max": [
        176.79014587402344,
        127.07740020751953,
        39.552886962890625
      ],
      "min": [
        158.91928100585938,
        104.02346801757813,
        11.937286376953125
      ],
      "type": "VEC3"
    },
    {
      "bufferView": 36,
      "componentType": 5126,
      "count": 312,
      "max": [
        0.9967915415763855,
        1.0,
        0.9973753690719604
      ],
      "min": [
        -0.9974676370620728,
        -1.0,
        -0.9964233040809631
      ],
      "type": "VEC3"
    },
    {
      "bufferView": 37,
      "componentType": 5126,
      "count": 312,
      "max": [
        0.9998450875282288,
        1.0,
        0.991020679473877,
        1.0
      ],
      "min": [
        -0.9997211694717407,
        -1.0,
        -0.9888209700584412,
        -1.0
      ],
      "type": "VEC4"
    },
    {
      "bufferView": 38,
      "componentType": 5126,
      "count": 312,
      "max": [
        0.9990234375,
        0.9990234375
      ],
      "min": [
        0.0015516281127929688,
        -0.982421875
      ],
      "type": "VEC2"
    },
    {
      "bufferView": 39,
      "componentType": 5125,
      "count": 768,
      "max": [
        311
      ],
      "min": [
        0
      ],
      "type": "SCALAR"
    },
    {
      "bufferView": 40,
      "componentType": 5126,
      "count": 299,
      "max": [
        -142.92100524902344,
        127.07516479492188,
        88.17178344726563
      ],
      "min": [
        -165.93148803710938,
        104.00428771972656,
        58.85676574707031
      ],
      "type": "VEC3"
    },
    {
      "bufferView": 41,
      "componentType": 5126,
      "count": 299,
      "max": [
        0.9696770310401917,
        1.0,
        0.973605215549469
      ],
      "min": [
        -0.9516650438308716,
        -1.0,
        -0.9898273348808289
      ],
      "type": "VEC3"
    },
    {
      "bufferView": 42,
      "componentType": 5126,
      "count": 299,
      "max": [
        0.9570078253746033,
        1.0,
        0.9125093221664429,
        -1.0
      ],
      "min": [
        -0.9991022348403931,
        -0.991020679473877,
        -0.9378222823143005,
        -1.0
      ],
      "type": "VEC4"
    },
    {
      "bufferView": 43,
      "componentType": 5126,
      "count": 299,
      "max": [
        0.99853515625,
        0.9970703125
      ],
      "min": [
        0.007312774658203125,
        0.00585174560546875
      ],
      "type": "VEC2"
    },
    {
      "bufferView": 44,
      "componentType": 5125,
      "count": 768,
      "max": [
        298
      ],
      "min": [
        0
      ],
      "type": "SCALAR"
    },
    {
      "bufferView": 45,
      "componentType": 5126,
      "count": 297,
      "max": [
        -152.99887084960938,
        127.06338500976563,
        64.66143035888672
      ],
      "min": [
        -173.61431884765625,
        104.00035858154297,
        35.952152252197266
      ],
      "type": "VEC3"
    },
    {
      "bufferView": 46,
      "componentType": 5126,
      "count": 297,
      "max": [
        0.9830033779144287,
        1.0,
        0.9986079335212708
      ],
      "min": [
        -0.9863333702087402,
        -1.0,
        -0.9968836307525635
      ],
      "type": "VEC3"
    },
    {
      "bufferView": 47,
      "componentType": 5126,
      "count": 297,
      "max": [
        0.9994733929634094,
        1.0,
        0.9591147899627686,
        1.0
      ],
      "min": [
        -1.0,
        -0.9988859295845032,
        -0.9995972514152527,
        -1.0
      ],
      "type": "VEC4"
    },
    {
      "bufferView": 48,
      "componentType": 5126,
      "count": 297,
      "max": [
        0.99853515625,
        1.0009765625
      ],
      "min": [
        0.00460052490234375,
        0.0030975341796875
      ],
      "type": "VEC2"
    },
    {
      "bufferView": 49,
      "componentType": 5125,
      "count": 765,
      "max": [
        296
      ],
      "min": [
        0
      ],
      "type": "SCALAR"
    }
  ],
  "asset": {
    "version": "2.0"
  },
  "bufferViews": [
    {
      "buffer": 0,
      "byteLength": 6048,
      "target": 34962
    },
    {
      "buffer": 0,
      "byteLength": 6048,
      "byteOffset": 6048,
      "target": 34962
    },
    {
      "buffer": 0,
      "byteLength": 8064,
      "byteOffset": 12096,
      "target": 34962
    },
    {
      "buffer": 0,
      "byteLength": 4032,
      "byteOffset": 20160,
      "target": 34962
    },
    {
      "buffer": 0,
      "byteLength": 5568,
      "byteOffset": 24192,
      "target": 34963
    },
    {
      "buffer": 0,
      "byteLength": 4428,
      "byteOffset": 29760,
      "target": 34962
    },
    {
      "buffer": 0,
      "byteLength": 4428,
      "byteOffset": 34188,
      "target": 34962
    },
    {
      "buffer": 0,
      "byteLength": 5904,
      "byteOffset": 38616,
      "target": 34962
    },
    {
      "buffer": 0,
      "byteLength": 2952,
      "byteOffset": 44520,
      "target": 34962
    },
    {
      "buffer": 0,
      "byteLength": 3528,
      "byteOffset": 47472,
      "target": 34963
    },
    {
      "buffer": 0,
      "byteLength": 3960,
      "byteOffset": 51000,
      "target": 34962
    },
    {
      "buffer": 0,
      "byteLength": 3960,
      "byteOffset": 54960,
      "target": 34962
    },
    {
      "buffer": 0,
      "byteLength": 5280,
      "byteOffset": 58920,
      "target": 34962
    },
    {
      "buffer": 0,
      "byteLength": 2640,
      "byteOffset": 64200,
      "target": 34962
    },
    {
      "buffer": 0,
      "byteLength": 3144,
      "byteOffset": 66840,
      "target": 34963
    },
    {
      "buffer": 0,
      "byteLength": 4188,
      "byteOffset": 69984,
      "target": 34962
    },
    {
      "buffer": 0,
      "byteLength": 4188,
      "byteOffset": 74172,
      "target": 34962
    },
    {
      "buffer": 0,
      "byteLength": 5584,
      "byteOffset": 78360,
      "target": 34962
    },
    {
      "buffer": 0,
      "byteLength": 2792,
      "byteOffset": 83944,
      "target": 34962
    },
    {
      "buffer": 0,
      "byteLength": 3600,
      "byteOffset": 86736,
      "target": 34963
    },
    {
      "buffer": 0,
      "byteLength": 20436,
      "byteOffset": 90336,
      "target": 34962
    },
    {
      "buffer": 0,
      "byteLength": 20436,
      "byteOffset": 110772,
      "target": 34962
    },
    {
      "buffer": 0,
      "byteLength": 27248,
      "byteOffset": 131208,
      "target": 34962
    },
    {
      "buffer": 0,
      "byteLength": 13624,
      "byteOffset": 158456,
      "target": 34962
    },
    {
      "buffer": 0,
      "byteLength": 13296,
      "byteOffset": 172080,
      "target": 34963
    },
    {
      "buffer": 0,
      "byteLength": 9732,
      "byteOffset": 185376,
      "target": 34962
    },
    {
      "buffer": 0,
      "byteLength": 9732,
      "byteOffset": 195108,
      "target": 34962
    },
    {
      "buffer": 0,
      "byteLength": 12976,
      "byteOffset": 204840,
      "target": 34962
    },
    {
      "buffer": 0,
      "byteLength": 6488,
      "byteOffset": 217816,
      "target": 34962
    },
    {
      "buffer": 0,
      "byteLength": 5352,
      "byteOffset": 224304,
      "target": 34963
    },
    {
      "buffer": 0,
      "byteLength": 35928,
      "byteOffset": 229656,
      "target": 34962
    },
    {
      "buffer": 0,
      "byteLength": 35928,
      "byteOffset": 265584,
      "target": 34962
    },
    {
      "buffer": 0,
      "byteLength": 47904,
      "byteOffset": 301512,
      "target": 34962
    },
    {
      "buffer": 0,
      "byteLength": 23952,
      "byteOffset": 349416,
      "target": 34962
    },
    {
      "buffer": 0,
      "byteLength": 25248,
      "byteOffset": 373368,
      "target": 34963
    },
    {
      "buffer": 0,
      "byteLength": 3744,
      "byteOffset": 398616,
      "target": 34962
    },
    {
      "buffer": 0,
      "byteLength": 3744,
      "byteOffset": 402360,
      "target": 34962
    },
    {
      "buffer": 0,
      "byteLength": 4992,
      "byteOffset": 406104,
      "target": 34962
    },
    {
      "buffer": 0,
      "byteLength": 2496,
      "byteOffset": 411096,
      "target": 34962
    },
    {
      "buffer": 0,
      "byteLength": 3072,
      "byteOffset": 413592,
      "target": 34963
    },
    {
      "buffer": 0,
      "byteLength": 3588,
      "byteOffset": 416664,
      "target": 34962
    },
    {
      "buffer": 0,
      "byteLength": 3588,
      "byteOffset": 420252,
      "target": 34962
    },
    {
      "buffer": 0,
      "byteLength": 4784,
      "byteOffset": 423840,
      "target": 34962
    },
    {
      "buffer": 0,
      "byteLength": 2392,
      "byteOffset": 428624,
      "target": 34962
    },
    {
      "buffer": 0,
      "byteLength": 3072,
      "byteOffset": 431016,
      "target": 34963
    },
    {
      "buffer": 0,
      "byteLength": 3564,
      "byteOffset": 434088,
      "target": 34962
    },
    {
      "buffer": 0,
      "byteLength": 3564,
      "byteOffset": 437652,
      "target": 34962
    },
    {
      "buffer": 0,
      "byteLength": 4752,
      "byteOffset": 441216,
      "target": 34962
    },
    {
      "buffer": 0,
      "byteLength": 2376,
      "byteOffset": 445968,
      "target": 34962
    },
    {
      "buffer": 0,
      "byteLength": 3060,
      "byteOffset": 448344,
      "target": 34963
    }
  ],
  "buffers": [
    {
      "byteLength": 451404,
      "uri": "BattleArena.bin"
    }
  ],
  "images": [
    {
      "uri": "MainArena_baseColor.png"
    },
    {
      "uri": "MainArena_normal.png"
    },
    {
      "uri": "MiddleArch_baseColor.png"
    },
    {
      "uri": "MiddleArch_metallicRoughness.png"
    },
    {
      "uri": "MiddleArch_normal.png"
    },
    {
      "uri": "lambert1_baseColor.png"
    },
    {
      "uri": "lambert1_metallicRoughness.png"
    },
    {
      "uri": "lambert1_normal.png"
    },
    {
      "uri": "archbroken3_baseColor.png"
    },
    {
      "uri": "archbroken3_metallicRoughness.png"
    },
    {
      "uri": "archbroken3_normal.png"
    },
    {
      "uri": "Arch_baseColor.png"
    },
    {
      "uri": "Arch_metallicRoughness.png"
    },
    {
      "uri": "Arch_normal.png"
    },
    {
      "uri": "MiddlePilalr_baseColor.png"
    },
    {
      "uri": "MiddlePilalr_metallicRoughness.png"
    },
    {
      "uri": "MiddlePilalr_normal.png"
    },
    {
      "uri": "Pillar_baseColor.png"
    },
    {
      "uri": "Pillar_metallicRoughness.png"
    },
    {
      "uri": "Pillar_normal.png"
    },
    {
      "uri": "archbroken1_baseColor.png"
    },
    {
      "uri": "archbroken1_metallicRoughness.png"
    },
    {
      "uri": "archbroken1_normal.png"
    },
    {
      "uri": "archbroken4_baseColor.png"
    },
    {
      "uri": "archbroken4_metallicRoughness.png"
    },
    {
      "uri": "archbroken4_normal.png"
    }
  ],
  "materials": [
    {
      "name": "MainArena_pCylinder5_MainArena_0",
      "normalTexture": {
        "index": 1
      },
      "pbrMetallicRoughness": {
        "baseColorTexture": {
          "index": 0
        },
        "metallicFactor": 0.0,
        "roughnessFactor": 0.6000000238418579
      }
    },
    {
      "name": "MiddleArch_pCube36_MiddleArch_0",
      "normalTexture": {
        "index": 4
      },
      "pbrMetallicRoughness": {
        "baseColorTexture": {
          "index": 2
        },
        "metallicRoughnessTexture": {
          "index": 3
        }
      }
    },
    {
      "name": "PillarBroken_pCylinder70_PillarBroken_0",
      "normalTexture": {
        "index": 7
      },
      "pbrMetallicRoughness": {
        "baseColorTexture": {
          "index": 5
        },
        "metallicRoughnessTexture": {
          "index": 6
        }
      }
    },
    {
      "name": "archbroken2_polySurface10_archbroken2_0",
      "normalTexture": {
        "index": 10
      },
      "pbrMetallicRoughness": {
        "baseColorTexture": {
          "index": 8
        },
        "metallicFactor": 0.0,
        "metallicRoughnessTexture": {
          "index": 9
        }
      }
    },
    {
      "name": "Arch_polySurface29_Arch_0",
      "normalTexture": {
        "index": 13
      },
      "pbrMetallicRoughness": {
        "baseColorTexture": {
          "index": 11
        },
        "metallicRoughnessTexture": {
          "index": 12
        }
      }
    },
    {
      "name": "MiddlePilalr_polySurface37_MiddlePilalr_0",
      "normalTexture": {
        "index": 16
      },
      "pbrMetallicRoughness": {
        "baseColorTexture": {
          "index": 14
        },
        "metallicRoughnessTexture": {
          "index": 15
        }
      }
    },
    {
      "name": "Pillar_polySurface39_Pillar_0",
      "normalTexture": {
        "index": 19
      },
      "pbrMetallicRoughness": {
        "baseColorTexture": {
          "index": 17
        },
        "metallicRoughnessTexture": {
          "index": 18
        }
      }
    },
    {
      "name": "archbroken1_polySurface3_archbroken1_0",
      "normalTexture": {
        "index": 22
      },
      "pbrMetallicRoughness": {
        "baseColorTexture": {
          "index": 20
        },
        "metallicRoughnessTexture": {
          "index": 21
        }
      }
    },
    {
      "name": "archbroken4_polySurface8_archbroken4_0",
      "normalTexture": {
        "index": 25
      },
      "pbrMetallicRoughness": {
        "baseColorTexture": {
          "index": 23
        },
        "metallicFactor": 0.0,
        "metallicRoughnessTexture": {
          "index": 24
        }
      }
    },
    {
      "name": "archbroken3_polySurface9_archbroken3_0",
      "normalTexture": {
        "index": 10
      },
      "pbrMetallicRoughness": {
        "baseColorTexture": {
          "index": 8
        },
        "metallicFactor": 0.0,
        "metallicRoughnessTexture": {
          "index": 9
        }
      }
    }
  ],
  "meshes": [
    {
      "primitives": [
        {
          "attributes": {
            "NORMAL": 1,
            "POSITION": 0,
            "TANGENT": 2,
            "TEXCOORD_0": 3
          },
          "indices": 4,
          "material": 0,
          "mode": 4
        },
        {
          "attributes": {
            "NORMAL": 6,
            "POSITION": 5,
            "TANGENT": 7,
            "TEXCOORD_0": 8
          },
          "indices": 9,
          "material": 1,
          "mode": 4
        },
        {
          "attributes": {
            "NORMAL": 11,
            "POSITION": 10,
            "TANGENT": 12,
            "TEXCOORD_0": 13
          },
          "indices": 14,
          "material": 2,
          "mode": 4
        },
        {
          "attributes": {
            "NORMAL": 16,
            "POSITION": 15,
            "TANGENT": 17,
            "TEXCOORD_0": 18
          },
          "indices": 19,
          "material": 3,
          "mode": 4
        },
        {
          "attributes": {
            "NORMAL": 21,
            "POSITION": 20,
            "TANGENT": 22,
            "TEXCOORD_0": 23
          },
          "indices": 24,
          "material": 4,
          "mode": 4
        },
        {
          "attributes": {
            "NORMAL": 26,
            "POSITION": 25,
            "TANGENT": 27,
            "TEXCOORD_0": 28
          },
          "indices": 29,
          "material": 5,
          "mode": 4
        },
        {
          "attributes": {
            "NORMAL": 31,
            "POSITION": 30,
            "TANGENT": 32,
            "TEXCOORD_0": 33
          },
          "indices": 34,
          "material": 6,
          "mode": 4
        },
        {
          "attributes": {
            "NORMAL": 36,
            "POSITION": 35,
            "TANGENT": 37,
            "TEXCOORD_0": 38
          },
          "indices": 39,
          "material": 7,
          "mode": 4
        },
        {
          "attributes": {
            "NORMAL": 41,
            "POSITION": 40,
            "TANGENT": 42,
            "TEXCOORD_0": 43
          },
          "indices": 44,
          "material": 8,
          "mode": 4
        },
        {
          "attributes": {
            "NORMAL": 46,
            "POSITION": 45,
            "TANGENT": 47,
            "TEXCOORD_0": 48
          },
          "indices": 49,
          "material": 9,
          "mode": 4
        }
      ]
    }
  ],
  "nodes": [
    {
      "mesh": 0,
      "name": "Mesh",
      "rotation": [
        -0.0,
        0.0,
        0.0,
        -1.0
      ],
      "scale": [
        1.0,
        1.0,
        1.0
      ],
      "translation": [
        -0.0,
        0.0,
        0.0
      ]
    }
  ],
  "samplers": [
    {
      "wrapS": 10497,
      "wrapT": 10497
    }
  ],
  "scenes": [
    {
      "nodes": [
        0
      ]
    }
  ],
  "textures": [
    {
      "sampler": 0,
      "source": 0
    },
    {
      "sampler": 0,
      "source": 1
    },
    {
      "sampler": 0,
      "source": 2
    },
    {
      "sampler": 0,
      "source": 3
    },
    {
      "sampler": 0,
      "source": 4
    },
    {
      "sampler": 0,
      "source": 5
    },
    {
      "sampler": 0,
      "source": 6
    },
    {
      "sampler": 0,
      "source": 7
    },
    {
      "sampler": 0,
      "source": 8
    },
    {
      "sampler": 0,
      "source": 9
    },
    {
      "sampler": 0,
      "source": 10
    },
    {
      "sampler": 0,
      "source": 11
    },
    {
      "sampler": 0,
      "source": 12
    },
    {
      "sampler": 0,
      "source": 13
    },
    {
      "sampler": 0,
      "source": 14
    },
    {
      "sampler": 0,
      "source": 15
    },
    {
      "sampler": 0,
      "source": 16
    },
    {
      "sampler": 0,
      "source": 17
    },
    {
      "sampler": 0,
      "source": 18
    },
    {
      "sampler": 0,
      "source": 19
    },
    {
      "sampler": 0,
      "source": 20
    },
    {
      "sampler": 0,
      "source": 21
    },
    {
      "sampler": 0,
      "source": 22
    },
    {
      "sampler": 0,
      "source": 23
    },
    {
      "sampler": 0,
      "source": 24
    },
    {
      "sampler": 0,
      "source": 25
    }
  ]
}
