{
  "accessors": [
    {
      "bufferView": 0,
      "componentType": 5126,
      "count": 1932,
      "max": [
        135.41188049316406,
        8.358325958251953,
        135.04551696777344
      ],
      "min": [
        -135.51023864746094,
        -7.758433818817139,
        -135.6956787109375
      ],
      "type": "VEC3"
    },
    {
      "bufferView": 1,
      "componentType": 5126,
      "count": 1932,
      "max": [
        0.9997211694717407,
        1.0,
        0.9999690055847168
      ],
      "min": [
        -1.0,
        -1.0,
        -1.0
      ],
      "type": "VEC3"
    },
    {
      "bufferView": 2,
      "componentType": 5126,
      "count": 1932,
      "max": [
        0.9997521042823792,
        1.0,
        0.9991022348403931,
        1.0
      ],
      "min": [
        -0.9999690055847168,
        -1.0,
        -0.9998450875282288,
        1.0
      ],
      "type": "VEC4"
    },
    {
      "bufferView": 3,
      "componentType": 5126,
      "count": 1932,
      "max": [
        0.95947265625,
        0.978515625
      ],
      "min": [
        0.05511474609375,
        0.33935546875
      ],
      "type": "VEC2"
    },
    {
      "bufferView": 4,
      "componentType": 5125,
      "count": 9405,
      "max": [
        1931
      ],
      "min": [
        0
      ],
      "type": "SCALAR"
    },
    {
      "bufferView": 5,
      "componentType": 5126,
      "count": 32,
      "max": [
        128.09701538085938,
        0.30013546347618103,
        127.730712890625
      ],
      "min": [
        -128.01441955566406,
        0.30003267526626587,
        -128.3807373046875
      ],
      "type": "VEC3"
    },
    {
      "bufferView": 6,
      "componentType": 5126,
      "count": 32,
      "max": [
        -0.0,
        1.0,
        0.0
      ],
      "min": [
        -0.0,
        1.0,
        0.0
      ],
      "type": "VEC3"
    },
    {
      "bufferView": 7,
      "componentType": 5126,
      "count": 32,
      "max": [
        0.9980219006538391,
        0.0,
        -0.06286752223968506,
        1.0
      ],
      "min": [
        0.9938837289810181,
        0.0,
        -0.11043152213096619,
        1.0
      ],
      "type": "VEC4"
    },
    {
      "bufferView": 8,
      "componentType": 5126,
      "count": 32,
      "max": [
        0.998046875,
        0.998046875
      ],
      "min": [
        0.001953125,
        0.001953125
      ],
      "type": "VEC2"
    },
    {
      "bufferView": 9,
      "componentType": 5125,
      "count": 90,
      "max": [
        31
      ],
      "min": [
        0
      ],
      "type": "SCALAR"
    },
    {
      "bufferView": 10,
      "componentType": 5126,
      "count": 192,
      "max": [
        135.0,
        0.0,
        135.0
      ],
      "min": [
        -135.0,
        -400.0,
        -135.0
      ],
      "type": "VEC3"
    },
    {
      "bufferView": 11,
      "componentType": 5126,
      "count": 192,
      "max": [
        0.9954954981803894,
        1.0,
        0.9954954981803894
      ],
      "min": [
        -0.9954954981803894,
        -1.0,
        -0.9954954981803894
      ],
      "type": "VEC3"
    },
    {
      "bufferView": 12,
      "componentType": 5126,
      "count": 192,
      "max": [
        1.0,
        0.0,
        0.9954954981803894,
        1.0
      ],
      "min": [
        -0.9954954981803894,
        0.0,
        -0.9954954981803894,
        -1.0
      ],
      "type": "VEC4"
    },
    {
      "bufferView": 13,
      "componentType": 5126,
      "count": 192,
      "max": [
        1.0,
        0.990234375
      ],
      "min": [
        0.0,
        0.0
      ],
      "type": "VEC2"
    },
    {
      "bufferView": 14,
      "componentType": 5125,
      "count": 372,
      "max": [
        191
      ],
      "min": [
        0
      ],
      "type": "SCALAR"
    },
    {
      "bufferView": 15,
      "componentType": 5126,
      "count": 192,
      "max": [
        135.0,
        11.0,
        135.0
      ],
      "min": [
        -135.0,
        9.0,
        -135.0
      ],
      "type": "VEC3"
    },
    {
      "bufferView": 16,
      "componentType": 5126,
      "count": 192,
      "max": [
        0.9954954981803894,
        1.0,
        0.9954954981803894
      ],
      "min": [
        -0.9954954981803894,
        -1.0,
        -0.9954954981803894
      ],
      "type": "VEC3"
    },
    {
      "bufferView": 17,
      "componentType": 5126,
      "count": 192,
      "max": [
        1.0,
        0.0,
        0.9954954981803894,
        1.0
      ],
      "min": [
        -0.9954954981803894,
        0.0,
        -0.9954954981803894,
        -1.0
      ],
      "type": "VEC4"
    },
    {
      "bufferView": 18,
      "componentType": 5126,
      "count": 192,
      "max": [
        1.0,
        0.990234375
      ],
      "min": [
        0.0,
        0.0
      ],
      "type": "VEC2"
    },
    {
      "bufferView": 19,
      "componentType": 5125,
      "count": 372,
      "max": [
        191
      ],
      "min": [
        0
      ],
      "type": "SCALAR"
    }
  ],
  "asset": {
    "version": "2.0"
  },
  "bufferViews": [
    {
      "buffer": 0,
      "byteLength": 23184,
      "target": 34962
    },
    {
      "buffer": 0,
      "byteLength": 23184,
      "byteOffset": 23184,
      "target": 34962
    },
    {
      "buffer": 0,
      "byteLength": 30912,
      "byteOffset": 46368,
      "target": 34962
    },
    {
      "buffer": 0,
      "byteLength": 15456,
      "byteOffset": 77280,
      "target": 34962
    },
    {
      "buffer": 0,
      "byteLength": 37620,
      "byteOffset": 92736,
      "target": 34963
    },
    {
      "buffer": 0,
      "byteLength": 384,
      "byteOffset": 130356,
      "target": 34962
    },
    {
      "buffer": 0,
      "byteLength": 384,
      "byteOffset": 130740,
      "target": 34962
    },
    {
      "buffer": 0,
      "byteLength": 512,
      "byteOffset": 131124,
      "target": 34962
    },
    {
      "buffer": 0,
      "byteLength": 256,
      "byteOffset": 131636,
      "target": 34962
    },
    {
      "buffer": 0,
      "byteLength": 360,
      "byteOffset": 131892,
      "target": 34963
    },
    {
      "buffer": 0,
      "byteLength": 2304,
      "byteOffset": 132252,
      "target": 34962
    },
    {
      "buffer": 0,
      "byteLength": 2304,
      "byteOffset": 134556,
      "target": 34962
    },
    {
      "buffer": 0,
      "byteLength": 3072,
      "byteOffset": 136860,
      "target": 34962
    },
    {
      "buffer": 0,
      "byteLength": 1536,
      "byteOffset": 139932,
      "target": 34962
    },
    {
      "buffer": 0,
      "byteLength": 1488,
      "byteOffset": 141468,
      "target": 34963
    },
    {
      "buffer": 0,
      "byteLength": 2304,
      "byteOffset": 142956,
      "target": 34962
    },
    {
      "buffer": 0,
      "byteLength": 2304,
      "byteOffset": 145260,
      "target": 34962
    },
    {
      "buffer": 0,
      "byteLength": 3072,
      "byteOffset": 147564,
      "target": 34962
    },
    {
      "buffer": 0,
      "byteLength": 1536,
      "byteOffset": 150636,
      "target": 34962
    },
    {
      "buffer": 0,
      "byteLength": 1488,
      "byteOffset": 152172,
      "target": 34963
    }
  ],
  "buffers": [
    {
      "byteLength": 153660,
      "uri": "stainedglass_pillar.bin"
    }
  ],
  "images": [
    {
      "uri": "texture\\stendglass_mt_albedo_Mat_BaseColor.png"
    },
    {
      "uri": "texture\\stendglass_mt_albedo_Mat_MetallicRoughness.png"
    },
    {
      "uri": "texture\\stendglass_mt_normal.png"
    },
    {
      "uri": "texture\\stendglass_mt_AO.jpeg"
    },
    {
      "uri": "texture\\glass01_mt_albedo_Mat_BaseColor.png"
    },
    {
      "uri": "texture\\glass01_mt_albedo_Mat_MetallicRoughness.png"
    },
    {
      "uri": "texture\\glass01_mt_normal.png"
    },
    {
      "uri": "texture\\glass01_mt_AO.jpeg"
    },
    {
      "uri": "texture\\M_Metal_Steel_BaseColor.png"
    },
    {
      "uri": "texture\\M_Metal_Steel_MetallicRoughness.png"
    },
    {
      "uri": "texture\\T_Metal_Steel_N.png"
    }
  ],
  "materials": [
    {
      "name": "stendglass_mt_albedo_Mat",
      "normalTexture": {
        "index": 2
      },
      "occlusionTexture": {
        "index": 3
      },
      "pbrMetallicRoughness": {
        "baseColorTexture": {
          "index": 0
        },
        "metallicRoughnessTexture": {
          "index": 1
        }
      }
    },
    {
      "name": "glass01_mt_albedo_Mat",
      "normalTexture": {
        "index": 6
      },
      "occlusionTexture": {
        "index": 7
      },
      "pbrMetallicRoughness": {
        "baseColorTexture": {
          "index": 4
        },
        "metallicRoughnessTexture": {
          "index": 5
        }
      }
    },
    {
      "name": "M_Metal_Steel",
      "normalTexture": {
        "index": 10
      },
      "pbrMetallicRoughness": {
        "baseColorTexture": {
          "index": 8
        },
        "metallicRoughnessTexture": {
          "index": 9
        }
      }
    },
    {
      "alphaMode": "BLEND",
      "name": "M_Glass",
      "pbrMetallicRoughness": {
        "baseColorFactor": [
          0.0,
          0.0012019999558106065,
          0.0033030000049620867,
          0.3499999940395355
        ],
        "metallicFactor": 0.0,
        "roughnessFactor": 0.0
      }
    }
  ],
  "meshes": [
    {
      "primitives": [
        {
          "attributes": {
            "NORMAL": 1,
            "POSITION": 0,
            "TANGENT": 2,
            "TEXCOORD_0": 3
          },
          "indices": 4,
          "material": 0,
          "mode": 4
        },
        {
          "attributes": {
            "NORMAL": 6,
            "POSITION": 5,
            "TANGENT": 7,
            "TEXCOORD_0": 8
          },
          "indices": 9,
          "material": 1,
          "mode": 4
        },
        {
          "attributes": {
            "NORMAL": 11,
            "POSITION": 10,
            "TANGENT": 12,
            "TEXCOORD_0": 13
          },
          "indices": 14,
          "material": 2,
          "mode": 4
        },
        {
          "attributes": {
            "NORMAL": 16,
            "POSITION": 15,
            "TANGENT": 17,
            "TEXCOORD_0": 18
          },
          "indices": 19,
          "material": 3,
          "mode": 4
        }
      ]
    }
  ],
  "nodes": [
    {
      "mesh": 0,
      "name": "Mesh",
      "rotation": [
        -0.0,
        0.0,
        0.0,
        -1.0
      ],
      "scale": [
        1.0,
        1.0,
        1.0
      ],
      "translation": [
        -0.0,
        0.0,
        0.0
      ]
    }
  ],
  "samplers": [
    {
      "wrapS": 10497,
      "wrapT": 10497
    }
  ],
  "scenes": [
    {
      "nodes": [
        0
      ]
    }
  ],
  "textures": [
    {
      "sampler": 0,
      "source": 0
    },
    {
      "sampler": 0,
      "source": 1
    },
    {
      "sampler": 0,
      "source": 2
    },
    {
      "sampler": 0,
      "source": 3
    },
    {
      "sampler": 0,
      "source": 4
    },
    {
      "sampler": 0,
      "source": 5
    },
    {
      "sampler": 0,
      "source": 6
    },
    {
      "sampler": 0,
      "source": 7
    },
    {
      "sampler": 0,
      "source": 8
    },
    {
      "sampler": 0,
      "source": 9
    },
    {
      "sampler": 0,
      "source": 10
    }
  ]
}
