{
  "accessors": [
    {
      "bufferView": 0,
      "componentType": 5126,
      "count": 5,
      "max": [
        2.832769343193999e-16,
        -1.0,
        1.6891614960864184e-30,
        0.0,
        1.0,
        2.832769343193999e-16,
        0.0,
        0.0,
        0.0,
        1.6891614960864184e-30,
        1.0,
        0.0,
        0.0,
        3.969664152947416e-09,
        5.955700410381799e-23,
        1.0
      ],
      "min": [
        2.832769343193999e-16,
        -1.0,
        0.0,
        0.0,
        1.0,
        2.832769343193999e-16,
        0.0,
        0.0,
        0.0,
        0.0,
        1.0,
        0.0,
        -1.000075340270996,
        -7.337880303381894e-16,
        -1.917838998721777e-09,
        1.0
      ],
      "type": "MAT4"
    },
    {
      "bufferView": 1,
      "componentType": 5126,
      "count": 4451,
      "max": [
        0.09491869062185287,
        0.9836642146110535,
        0.04186753183603287
      ],
      "min": [
        -0.09491869062185287,
        -0.4013751149177551,
        -0.04200976714491844
      ],
      "type": "VEC3"
    },
    {
      "bufferView": 2,
      "componentType": 5126,
      "count": 4451,
      "max": [
        0.9999998807907104,
        1.0,
        1.0
      ],
      "min": [
        -0.9999998807907104,
        -1.0,
        -1.0
      ],
      "type": "VEC3"
    },
    {
      "bufferView": 3,
      "componentType": 5126,
      "count": 4451,
      "max": [
        1.0,
        1.0,
        1.0,
        1.0
      ],
      "min": [
        -1.0,
        -0.9967694282531738,
        -1.0,
        1.0
      ],
      "type": "VEC4"
    },
    {
      "bufferView": 4,
      "componentType": 5126,
      "count": 4451,
      "max": [
        0.995635986328125,
        0.9912750124931335
      ],
      "min": [
        0.010599000379443169,
        0.009765028953552246
      ],
      "type": "VEC2"
    },
    {
      "bufferView": 5,
      "componentType": 5126,
      "count": 4451,
      "max": [
        1.0,
        0.49888452887535095,
        0.014646579511463642,
        0.0
      ],
      "min": [
        0.5011154413223267,
        0.0,
        0.0,
        0.0
      ],
      "type": "VEC4"
    },
    {
      "bufferView": 6,
      "componentType": 5123,
      "count": 4451,
      "max": [
        3,
        3,
        3,
        0
      ],
      "min": [
        0,
        0,
        0,
        0
      ],
      "type": "VEC4"
    },
    {
      "bufferView": 7,
      "componentType": 5125,
      "count": 20088,
      "max": [
        4450
      ],
      "min": [
        0
      ],
      "type": "SCALAR"
    }
  ],
  "asset": {
    "version": "2.0"
  },
  "bufferViews": [
    {
      "buffer": 0,
      "byteLength": 320
    },
    {
      "buffer": 0,
      "byteLength": 53412,
      "byteOffset": 320,
      "target": 34962
    },
    {
      "buffer": 0,
      "byteLength": 53412,
      "byteOffset": 53732,
      "target": 34962
    },
    {
      "buffer": 0,
      "byteLength": 71216,
      "byteOffset": 107144,
      "target": 34962
    },
    {
      "buffer": 0,
      "byteLength": 35608,
      "byteOffset": 178360,
      "target": 34962
    },
    {
      "buffer": 0,
      "byteLength": 71216,
      "byteOffset": 213968,
      "target": 34962
    },
    {
      "buffer": 0,
      "byteLength": 35608,
      "byteOffset": 285184,
      "target": 34962
    },
    {
      "buffer": 0,
      "byteLength": 80352,
      "byteOffset": 320792,
      "target": 34963
    }
  ],
  "buffers": [
    {
      "byteLength": 401144,
      "uri": "Staff.bin"
    }
  ],
  "images": [
    {
      "uri": "Staff_Mat_Base.png"
    },
    {
      "uri": "Staff_Mat_Normal.png"
    },
    {
      "uri": "Staff_Mat_Emissive.png"
    }
  ],
  "materials": [
    {
      "emissiveFactor": [
        1.0,
        1.0,
        1.0
      ],
      "emissiveTexture": {
        "index": 2
      },
      "name": "Staff_Mat",
      "normalTexture": {
        "index": 1
      },
      "pbrMetallicRoughness": {
        "baseColorTexture": {
          "index": 0
        },
        "metallicFactor": 0.20000000298023224,
        "roughnessFactor": 0.800000011920929
      }
    }
  ],
  "meshes": [
    {
      "primitives": [
        {
          "attributes": {
            "JOINTS_0": 6,
            "NORMAL": 2,
            "POSITION": 1,
            "TANGENT": 3,
            "TEXCOORD_0": 4,
            "WEIGHTS_0": 5
          },
          "indices": 7,
          "material": 0,
          "mode": 4
        }
      ]
    }
  ],
  "nodes": [
    {
      "children": [
        1
      ],
      "name": "RootNode",
      "rotation": [
        0.0,
        0.0,
        0.0,
        1.0
      ],
      "scale": [
        1.0,
        1.0,
        1.0
      ],
      "translation": [
        0.0,
        0.0,
        0.0
      ]
    },
    {
      "children": [
        2,
        3
      ],
      "name": "Staff",
      "rotation": [
        0.0,
        0.0,
        0.0,
        1.0
      ],
      "scale": [
        1.0,
        1.0,
        1.0
      ],
      "translation": [
        0.0,
        0.0,
        0.0
      ]
    },
    {
      "mesh": 0,
      "name": "Staff_Body",
      "rotation": [
        0.0,
        0.0,
        0.0,
        1.0
      ],
      "scale": [
        1.0,
        1.0,
        1.0
      ],
      "skin": 0,
      "translation": [
        0.0,
        0.0,
        0.0
      ]
    },
    {
      "children": [
        4
      ],
      "name": "Staff_Skeleton",
      "rotation": [
        0.0,
        0.0,
        0.0,
        1.0
      ],
      "scale": [
        1.0,
        1.0,
        1.0
      ],
      "translation": [
        0.0,
        0.0,
        0.0
      ]
    },
    {
      "children": [
        5
      ],
      "name": "Staff_Joint1",
      "rotation": [
        -0.5,
        -0.5,
        -0.5,
        0.5
      ],
      "scale": [
        1.0,
        1.0,
        1.0
      ],
      "translation": [
        0.0,
        0.0,
        0.0
      ]
    },
    {
      "children": [
        6
      ],
      "name": "Staff_Joint2",
      "rotation": [
        8.326672684688674e-17,
        1.942890293094024e-16,
        1.942890293094024e-16,
        1.0
      ],
      "scale": [
        1.0,
        1.0,
        1.0
      ],
      "translation": [
        0.23617276549339294,
        -3.94272925419159e-09,
        -3.933066465166315e-17
      ]
    },
    {
      "children": [
        7
      ],
      "name": "Staff_Joint3",
      "rotation": [
        8.326672684688674e-17,
        1.942890293094024e-16,
        1.942890293094024e-16,
        1.0
      ],
      "scale": [
        1.0,
        1.0,
        1.0
      ],
      "translation": [
        0.1834566593170166,
        -2.6934924776678137e-11,
        1.917838998721777e-09
      ]
    },
    {
      "children": [
        8
      ],
      "name": "Staff_Joint4",
      "rotation": [
        8.326672684688674e-17,
        1.942890293094024e-16,
        1.942890293094024e-16,
        1.0
      ],
      "scale": [
        1.0,
        1.0,
        1.0
      ],
      "translation": [
        0.18123334646224976,
        2.6935004573958032e-11,
        -1.917838998721777e-09
      ]
    },
    {
      "name": "Staff_JointEnd",
      "rotation": [
        -1.4275510126943027e-33,
        -0.0,
        0.0,
        1.0
      ],
      "scale": [
        1.0,
        1.0,
        1.0
      ],
      "translation": [
        0.3992125988006592,
        3.94272925419159e-09,
        2.524354840283509e-31
      ]
    }
  ],
  "samplers": [
    {
      "wrapS": 10497,
      "wrapT": 10497
    }
  ],
  "scenes": [
    {
      "nodes": [
        0
      ]
    }
  ],
  "skins": [
    {
      "inverseBindMatrices": 0,
      "joints": [
        4,
        5,
        6,
        7,
        8
      ]
    }
  ],
  "textures": [
    {
      "sampler": 0,
      "source": 0
    },
    {
      "sampler": 0,
      "source": 1
    },
    {
      "sampler": 0,
      "source": 2
    }
  ]
}
